<svg xmlns="http://www.w3.org/2000/svg" id="voronoi" width="620" height="620"><path d="M419.975,198.323L361.614,243.926L379.427,351.283L380.702,352.148L450.593,349.898L492.875,289.975L438.74,201.461Z" style="fill: rgb(222, 158, 214); stroke: rgb(0, 0, 0); stroke-width: 1; opacity: 0.75;"/><path d="M419.975,198.323L374.622,113.145L310.099,107.403L260.765,158.047L282.827,222.875L361.614,243.926Z" style="fill: rgb(82, 84, 163); stroke: rgb(0, 0, 0); stroke-width: 1; opacity: 0.75;"/><path d="M419.975,198.323L438.74,201.461L543.924,125.458L542.705,123.664L531.154,108.773L518.691,94.636L505.364,81.309L491.227,68.846L476.336,57.295L460.748,46.702L444.526,37.108L428.456,28.92L374.622,113.145Z" style="fill: rgb(165, 81, 148); stroke: rgb(0, 0, 0); stroke-width: 1; opacity: 0.75;"/><path d="M68.846,108.773L57.295,123.664L46.702,139.252L37.108,155.474L28.552,172.266L21.067,189.563L14.683,207.295L9.425,225.393L5.522,242.854L128.83,255.963L155.11,155.564L71.994,105.202Z" style="fill: rgb(231, 150, 156); stroke: rgb(0, 0, 0); stroke-width: 1; opacity: 0.75;"/><path d="M128.83,255.963L156.717,300.048L220.572,302.25L282.827,222.875L260.765,158.047L184.11,139.858L155.11,155.564Z" style="fill: rgb(132, 60, 57); stroke: rgb(0, 0, 0); stroke-width: 1; opacity: 0.75;"/><path d="M128.83,255.963L5.522,242.854L5.314,243.786L2.366,262.4L0.592,281.163L0,300L0.592,318.837L2.366,337.6L5.314,356.214L8.695,371.343L127.148,359.241L156.717,300.048Z" style="fill: rgb(140, 162, 82); stroke: rgb(0, 0, 0); stroke-width: 1; opacity: 0.75;"/><path d="M388.564,471.739L411.071,477.175L484.629,417.366L450.593,349.898L380.702,352.148Z" style="fill: rgb(189, 158, 57); stroke: rgb(0, 0, 0); stroke-width: 1; opacity: 0.75;"/><path d="M388.564,471.739L359.344,488.441L353.092,595.181L356.214,594.686L374.607,590.575L392.705,585.317L410.437,578.933L427.734,571.448L444.526,562.892L457.784,555.052L411.071,477.175Z" style="fill: rgb(231, 186, 82); stroke: rgb(0, 0, 0); stroke-width: 1; opacity: 0.75;"/><path d="M388.564,471.739L380.702,352.148L379.427,351.283L268.195,376.612L248.563,433.344L359.344,488.441Z" style="fill: rgb(181, 207, 107); stroke: rgb(0, 0, 0); stroke-width: 1; opacity: 0.75;"/><path d="M361.614,243.926L282.827,222.875L220.572,302.25L268.195,376.612L379.427,351.283Z" style="fill: rgb(156, 158, 222); stroke: rgb(0, 0, 0); stroke-width: 1; opacity: 0.75;"/><path d="M223.531,446.24L248.563,433.344L268.195,376.612L220.572,302.25L156.717,300.048L127.148,359.241L150.2,421.416Z" style="fill: rgb(107, 110, 207); stroke: rgb(0, 0, 0); stroke-width: 1; opacity: 0.75;"/><path d="M223.531,446.24L188.955,578.67L189.563,578.933L207.295,585.317L225.393,590.575L243.786,594.686L262.4,597.634L281.163,599.408L300,600L318.837,599.408L337.6,597.634L353.092,595.181L359.344,488.441L248.563,433.344Z" style="fill: rgb(231, 203, 148); stroke: rgb(0, 0, 0); stroke-width: 1; opacity: 0.75;"/><path d="M81.309,505.364L94.636,518.691L108.773,531.154L123.664,542.705L139.252,553.298L155.474,562.892L172.266,571.448L188.955,578.67L223.531,446.24L150.2,421.416L72.768,495.676Z" style="fill: rgb(140, 109, 49); stroke: rgb(0, 0, 0); stroke-width: 1; opacity: 0.75;"/><path d="M260.765,158.047L310.099,107.403L286.742,0.417L281.163,0.592L262.4,2.366L243.786,5.314L225.393,9.425L207.295,14.683L189.563,21.067L172.266,28.552L160.513,34.54L184.11,139.858Z" style="fill: rgb(214, 97, 107); stroke: rgb(0, 0, 0); stroke-width: 1; opacity: 0.75;"/><path d="M374.622,113.145L428.456,28.92L427.734,28.552L410.437,21.067L392.705,14.683L374.607,9.425L356.214,5.314L337.6,2.366L318.837,0.592L300,0L286.742,0.417L310.099,107.403Z" style="fill: rgb(206, 219, 156); stroke: rgb(0, 0, 0); stroke-width: 1; opacity: 0.75;"/><path d="M460.748,553.298L476.336,542.705L491.227,531.154L505.364,518.691L518.691,505.364L531.154,491.227L542.705,476.336L553.298,460.748L561.571,446.759L484.629,417.366L411.071,477.175L457.784,555.052Z" style="fill: rgb(173, 73, 74); stroke: rgb(0, 0, 0); stroke-width: 1; opacity: 0.75;"/><path d="M484.629,417.366L561.571,446.759L562.892,444.526L571.448,427.734L578.933,410.437L585.317,392.705L590.575,374.607L594.686,356.214L597.634,337.6L599.408,318.837L600,300L599.563,286.109L492.875,289.975L450.593,349.898Z" style="fill: rgb(57, 59, 121); stroke: rgb(0, 0, 0); stroke-width: 1; opacity: 0.75;"/><path d="M599.563,286.109L599.408,281.163L597.634,262.4L594.686,243.786L590.575,225.393L585.317,207.295L578.933,189.563L571.448,172.266L562.892,155.474L553.298,139.252L543.924,125.458L438.74,201.461L492.875,289.975Z" style="fill: rgb(99, 121, 57); stroke: rgb(0, 0, 0); stroke-width: 1; opacity: 0.75;"/><path d="M160.513,34.54L155.474,37.108L139.252,46.702L123.664,57.295L108.773,68.846L94.636,81.309L81.309,94.636L71.994,105.202L155.11,155.564L184.11,139.858Z" style="fill: rgb(123, 65, 115); stroke: rgb(0, 0, 0); stroke-width: 1; opacity: 0.75;"/><path d="M9.425,374.607L14.683,392.705L21.067,410.437L28.552,427.734L37.108,444.526L46.702,460.748L57.295,476.336L68.846,491.227L72.768,495.676L150.2,421.416L127.148,359.241L8.695,371.343Z" style="fill: rgb(206, 109, 189); stroke: rgb(0, 0, 0); stroke-width: 1; opacity: 0.75;"/><text x="422.1325434400784" y="281.08434908419736" font-size="16px" text-anchor="middle" dominant-baseline="middle" fill="#050505" font-weight="bold" font-family="Courier New, monospace">Wolves</text><text x="338.10661456536565" y="175.18387624814517" font-size="16px" text-anchor="middle" dominant-baseline="middle" fill="#050505" font-weight="bold" font-family="Courier New, monospace">Aston Villa</text><text x="451.1388619646359" y="117.06492535415602" font-size="16px" text-anchor="middle" dominant-baseline="middle" fill="#050505" font-weight="bold" font-family="Courier New, monospace">Tottenham</text><text x="82.81956180953709" y="189.8197560752049" font-size="16px" text-anchor="middle" dominant-baseline="middle" fill="#050505" font-weight="bold" font-family="Courier New, monospace">Nott'm Forest</text><text x="202.3563001580019" y="221.9083365328262" font-size="16px" text-anchor="middle" dominant-baseline="middle" fill="#050505" font-weight="bold" font-family="Courier New, monospace">Man City</text><text x="69.74110452483794" y="306.80466647602896" font-size="16px" text-anchor="middle" dominant-baseline="middle" fill="#050505" font-weight="bold" font-family="Courier New, monospace">Chelsea</text><text x="424.29186346744444" y="407.1476942187652" font-size="16px" text-anchor="middle" dominant-baseline="middle" fill="#050505" font-weight="bold" font-family="Courier New, monospace">Ipswich</text><text x="395.9480998193144" y="534.874906088525" font-size="16px" text-anchor="middle" dominant-baseline="middle" fill="#050505" font-weight="bold" font-family="Courier New, monospace">Leicester</text><text x="329.211313415225" y="417.6290435489387" font-size="16px" text-anchor="middle" dominant-baseline="middle" fill="#050505" font-weight="bold" font-family="Courier New, monospace">Crystal Palace</text><text x="304.3228004996776" y="302.0248267844584" font-size="16px" text-anchor="middle" dominant-baseline="middle" fill="#050505" font-weight="bold" font-family="Courier New, monospace">Brentford</text><text x="197.20683106402495" y="371.5401764511493" font-size="16px" text-anchor="middle" dominant-baseline="middle" fill="#050505" font-weight="bold" font-family="Courier New, monospace">Bournemouth</text><text x="277.33741114138417" y="527.0816882068268" font-size="16px" text-anchor="middle" dominant-baseline="middle" fill="#050505" font-weight="bold" font-family="Courier New, monospace">Liverpool</text><text x="156.27287605549972" y="494.67822468373697" font-size="16px" text-anchor="middle" dominant-baseline="middle" fill="#050505" font-weight="bold" font-family="Courier New, monospace">Fulham</text><text x="237.28769932639707" y="77.40119789297889" font-size="16px" text-anchor="middle" dominant-baseline="middle" fill="#050505" font-weight="bold" font-family="Courier New, monospace">Newcastle</text><text x="350.7017158021949" y="52.74836933812892" font-size="16px" text-anchor="middle" dominant-baseline="middle" fill="#050505" font-weight="bold" font-family="Courier New, monospace">Everton</text><text x="482.6924188639955" y="479.68793473429304" font-size="16px" text-anchor="middle" dominant-baseline="middle" fill="#050505" font-weight="bold" font-family="Courier New, monospace">Man United</text><text x="531.9987811260813" y="357.2818972175774" font-size="16px" text-anchor="middle" dominant-baseline="middle" fill="#050505" font-weight="bold" font-family="Courier New, monospace">Arsenal</text><text x="526.5992847257114" y="220.10336484298153" font-size="16px" text-anchor="middle" dominant-baseline="middle" fill="#050505" font-weight="bold" font-family="Courier New, monospace">Brighton</text><text x="137.1843742146514" y="99.44331347048569" font-size="16px" text-anchor="middle" dominant-baseline="middle" fill="#050505" font-weight="bold" font-family="Courier New, monospace">Southampton</text><text x="80.50896835905606" y="415.10463350535196" font-size="16px" text-anchor="middle" dominant-baseline="middle" fill="#050505" font-weight="bold" font-family="Courier New, monospace">West Ham</text><text class="goals" x="422.1325434400784" y="293.08434908419736" font-size="14px" text-anchor="middle" dominant-baseline="middle" fill="#232323" font-family="Courier New, monospace">54</text><text class="goals" x="338.10661456536565" y="187.18387624814517" font-size="14px" text-anchor="middle" dominant-baseline="middle" fill="#232323" font-family="Courier New, monospace">58</text><text class="goals" x="451.1388619646359" y="129.064925354156" font-size="14px" text-anchor="middle" dominant-baseline="middle" fill="#232323" font-family="Courier New, monospace">64</text><text class="goals" x="82.81956180953709" y="201.8197560752049" font-size="14px" text-anchor="middle" dominant-baseline="middle" fill="#232323" font-family="Courier New, monospace">58</text><text class="goals" x="202.3563001580019" y="233.9083365328262" font-size="14px" text-anchor="middle" dominant-baseline="middle" fill="#232323" font-family="Courier New, monospace">72</text><text class="goals" x="69.74110452483794" y="318.80466647602896" font-size="14px" text-anchor="middle" dominant-baseline="middle" fill="#232323" font-family="Courier New, monospace">64</text><text class="goals" x="424.29186346744444" y="419.1476942187652" font-size="14px" text-anchor="middle" dominant-baseline="middle" fill="#232323" font-family="Courier New, monospace">36</text><text class="goals" x="395.9480998193144" y="546.874906088525" font-size="14px" text-anchor="middle" dominant-baseline="middle" fill="#232323" font-family="Courier New, monospace">33</text><text class="goals" x="329.211313415225" y="429.6290435489387" font-size="14px" text-anchor="middle" dominant-baseline="middle" fill="#232323" font-family="Courier New, monospace">51</text><text class="goals" x="304.3228004996776" y="314.0248267844584" font-size="14px" text-anchor="middle" dominant-baseline="middle" fill="#232323" font-family="Courier New, monospace">66</text><text class="goals" x="197.20683106402495" y="383.5401764511493" font-size="14px" text-anchor="middle" dominant-baseline="middle" fill="#232323" font-family="Courier New, monospace">58</text><text class="goals" x="277.33741114138417" y="539.0816882068268" font-size="14px" text-anchor="middle" dominant-baseline="middle" fill="#232323" font-family="Courier New, monospace">86</text><text class="goals" x="156.27287605549972" y="506.67822468373697" font-size="14px" text-anchor="middle" dominant-baseline="middle" fill="#232323" font-family="Courier New, monospace">54</text><text class="goals" x="237.28769932639707" y="89.40119789297889" font-size="14px" text-anchor="middle" dominant-baseline="middle" fill="#232323" font-family="Courier New, monospace">68</text><text class="goals" x="350.7017158021949" y="64.74836933812892" font-size="14px" text-anchor="middle" dominant-baseline="middle" fill="#232323" font-family="Courier New, monospace">42</text><text class="goals" x="482.6924188639955" y="491.68793473429304" font-size="14px" text-anchor="middle" dominant-baseline="middle" fill="#232323" font-family="Courier New, monospace">44</text><text class="goals" x="531.9987811260813" y="369.2818972175774" font-size="14px" text-anchor="middle" dominant-baseline="middle" fill="#232323" font-family="Courier New, monospace">69</text><text class="goals" x="526.5992847257114" y="232.10336484298153" font-size="14px" text-anchor="middle" dominant-baseline="middle" fill="#232323" font-family="Courier New, monospace">66</text><text class="goals" x="137.1843742146514" y="111.44331347048569" font-size="14px" text-anchor="middle" dominant-baseline="middle" fill="#232323" font-family="Courier New, monospace">26</text><text class="goals" x="80.50896835905606" y="427.10463350535196" font-size="14px" text-anchor="middle" dominant-baseline="middle" fill="#232323" font-family="Courier New, monospace">46</text></svg>